<svg width="208" height="415" viewBox="0 0 208 415" fill="none" xmlns="http://www.w3.org/2000/svg">
<path d="M19.407 411.093C15.2234 411.087 11.2131 409.421 8.25689 406.46C5.30072 403.5 3.64039 399.487 3.6404 395.304V216.729C3.64927 215.271 4.08485 213.848 4.89349 212.635C5.70214 211.422 6.84843 210.472 8.19065 209.903C10.7945 208.778 13.0703 207.011 14.8051 204.767C16.5399 202.522 17.6771 199.875 18.1102 197.072C18.0421 196.642 18.0421 196.204 18.1102 195.775C18.418 193.597 18.2155 191.377 17.5186 189.291C16.7822 187.003 15.5647 184.9 13.9479 183.123C12.3311 181.345 10.3525 179.934 8.14511 178.984C6.80288 178.415 5.65673 177.466 4.84809 176.253C4.03944 175.04 3.60372 173.617 3.59485 172.159V19.4068C3.59485 15.2253 5.25605 11.2149 8.21287 8.25812C11.1697 5.3013 15.1799 3.6402 19.3615 3.6402H187.994C192.176 3.6402 196.186 5.3013 199.143 8.25812C202.1 11.2149 203.761 15.2253 203.761 19.4068V172.341C203.764 173.801 203.333 175.23 202.523 176.445C201.713 177.66 200.56 178.607 199.21 179.166C197.027 180.128 195.073 181.542 193.477 183.314C191.881 185.087 190.679 187.178 189.951 189.45L189.655 190.61C189.541 191.065 189.427 191.52 189.359 191.975V192.112C189.232 192.932 189.171 193.762 189.177 194.592C189.176 197.859 190.126 201.055 191.912 203.79C193.698 206.526 196.242 208.681 199.233 209.994C200.582 210.553 201.735 211.5 202.545 212.716C203.356 213.931 203.786 215.359 203.783 216.82V395.508C203.777 399.688 202.114 403.695 199.159 406.65C196.203 409.606 192.196 411.269 188.017 411.275L19.407 411.093Z" fill="#96D2BF"/>
<path d="M188.039 7.2804C191.256 7.2804 194.34 8.55802 196.614 10.8322C198.888 13.1063 200.166 16.1907 200.166 19.4068V172.341C200.149 173.082 199.913 173.802 199.488 174.409C199.063 175.016 198.468 175.484 197.777 175.754C195.127 176.922 192.755 178.64 190.817 180.793C188.88 182.946 187.421 185.486 186.538 188.244C186.538 188.449 186.379 188.858 186.242 189.404C186.106 189.951 185.901 190.679 185.787 191.338C185.798 191.383 185.798 191.43 185.787 191.475C185.649 192.478 185.581 193.489 185.582 194.501C185.585 198.47 186.741 202.353 188.91 205.678C191.079 209.002 194.168 211.624 197.8 213.225C198.49 213.494 199.086 213.962 199.511 214.57C199.936 215.177 200.172 215.897 200.189 216.638V395.326C200.189 398.542 198.911 401.627 196.637 403.901C194.363 406.175 191.278 407.453 188.062 407.453H19.4069C16.1887 407.447 13.1044 406.164 10.8309 403.886C8.55739 401.609 7.28043 398.522 7.28044 395.304V216.729C7.30048 215.983 7.53989 215.259 7.96878 214.648C8.39768 214.037 8.99706 213.566 9.69207 213.293C13.0291 211.851 15.9218 209.545 18.073 206.614C20.2242 203.683 21.5562 200.233 21.9323 196.617H21.7958C22.2352 193.81 21.9933 190.938 21.0905 188.244C20.1949 185.469 18.7168 182.916 16.7549 180.758C14.7931 178.6 12.3928 176.886 9.71484 175.731C9.01983 175.459 8.42045 174.987 7.99156 174.376C7.56266 173.766 7.32326 173.042 7.30321 172.295V19.4068C7.30321 16.1907 8.5809 13.1063 10.855 10.8322C13.1292 8.55802 16.2136 7.2804 19.4297 7.2804H188.062H188.039ZM188.062 0H19.4069C14.2617 0.00602127 9.32906 2.05259 5.69088 5.69077C2.05269 9.32896 0.00602127 14.2617 0 19.4068V172.25C0.0237703 174.42 0.682987 176.535 1.89603 178.335C3.10908 180.134 4.82277 181.538 6.82539 182.374C8.55312 183.118 10.1012 184.224 11.365 185.618C12.6288 187.011 13.579 188.659 14.1514 190.451C14.6527 191.951 14.8233 193.542 14.6518 195.115C14.4794 195.822 14.418 196.551 14.4699 197.276C14.0305 199.328 13.1076 201.244 11.7779 202.867C10.4483 204.489 8.75025 205.771 6.82539 206.604C4.8245 207.443 3.11247 208.848 1.89978 210.647C0.6871 212.445 0.0266823 214.559 0 216.729V395.304C0.00600613 400.451 2.05195 405.386 5.68949 409.028C9.32703 412.67 14.2597 414.721 19.4069 414.733H188.039C193.185 414.727 198.117 412.681 201.755 409.042C205.394 405.404 207.44 400.471 207.446 395.326V216.638C207.417 214.475 206.754 212.368 205.542 210.577C204.329 208.786 202.618 207.389 200.621 206.559C198.282 205.528 196.293 203.839 194.895 201.698C193.498 199.558 192.752 197.057 192.749 194.501C192.75 193.854 192.796 193.208 192.885 192.567V192.453C192.885 192.226 193.022 191.839 193.113 191.429V191.202C193.113 190.838 193.272 190.519 193.341 190.315C193.925 188.572 194.866 186.97 196.104 185.61C197.342 184.251 198.849 183.165 200.53 182.42C202.527 181.589 204.238 180.193 205.451 178.402C206.663 176.611 207.326 174.504 207.355 172.341V19.4068C207.349 14.2617 205.303 9.32896 201.665 5.69077C198.026 2.05259 193.094 0.00602127 187.949 0H188.062Z" fill="#282548"/>
<path d="M200.166 172.341V19.4068C200.166 16.1907 198.888 13.1063 196.614 10.8322C194.34 8.55801 191.255 7.2804 188.039 7.2804H19.4067C16.1906 7.2804 13.1063 8.55801 10.8321 10.8322C8.55796 13.1063 7.28027 16.1907 7.28027 19.4068V172.25C7.30032 172.996 7.53972 173.72 7.96862 174.331C8.39751 174.942 8.99689 175.413 9.6919 175.685C13.3653 177.269 16.4947 179.893 18.6933 183.235C20.8919 186.577 22.0635 190.489 22.0635 194.489C22.0635 198.49 20.8919 202.402 18.6933 205.744C16.4947 209.085 13.3653 211.71 9.6919 213.293C8.99689 213.566 8.39751 214.037 7.96862 214.648C7.53972 215.259 7.30032 215.983 7.28027 216.729V395.304C7.28027 398.522 8.55722 401.609 10.8307 403.886C13.1042 406.164 16.1885 407.447 19.4067 407.453H188.017C191.235 407.453 194.322 406.176 196.599 403.902C198.877 401.629 200.16 398.545 200.166 395.326V216.638C200.143 215.898 199.905 215.181 199.481 214.575C199.056 213.969 198.464 213.499 197.777 213.225C194.143 211.623 191.054 208.999 188.885 205.672C186.717 202.346 185.562 198.46 185.562 194.489C185.562 190.518 186.717 186.633 188.885 183.306C191.054 179.98 194.143 177.356 197.777 175.754C198.464 175.479 199.056 175.01 199.481 174.404C199.905 173.798 200.143 173.081 200.166 172.341Z" fill="#B3DED0" stroke="#282548" stroke-width="3.64021" stroke-miterlimit="10"/>
<path d="M155.846 315.856C155.846 318.812 154.97 321.702 153.327 324.161C151.685 326.619 149.35 328.535 146.619 329.666C143.888 330.797 140.882 331.093 137.983 330.516C135.083 329.94 132.42 328.516 130.329 326.426C128.239 324.335 126.815 321.672 126.238 318.772C125.662 315.873 125.958 312.867 127.089 310.136C128.221 307.405 130.136 305.07 132.594 303.428C135.053 301.785 137.943 300.909 140.899 300.909C144.863 300.909 148.665 302.483 151.468 305.287C154.272 308.09 155.846 311.892 155.846 315.856Z" fill="#FCBD67" stroke="#282548" stroke-width="3.64021" stroke-miterlimit="10"/>
<path d="M68.0264 245.077C68.0264 247.061 67.438 249.001 66.3355 250.651C65.233 252.301 63.6661 253.587 61.8327 254.346C59.9994 255.106 57.982 255.305 56.0358 254.917C54.0895 254.53 52.3017 253.575 50.8985 252.172C49.4953 250.768 48.5398 248.981 48.1527 247.034C47.7655 245.088 47.9641 243.071 48.7235 241.237C49.4829 239.404 50.769 237.837 52.4189 236.734C54.0689 235.632 56.0088 235.044 57.9932 235.044C60.6542 235.044 63.2062 236.101 65.0878 237.982C66.9694 239.864 68.0264 242.416 68.0264 245.077Z" fill="#FCBD67" stroke="#282548" stroke-width="3.64021" stroke-miterlimit="10"/>
<path d="M68.0264 299.725C68.0309 301.711 67.4463 303.653 66.3466 305.306C65.2468 306.959 63.6815 308.248 61.8485 309.011C60.0156 309.774 57.9974 309.976 56.0496 309.592C54.1019 309.207 52.312 308.253 50.9066 306.851C49.5011 305.449 48.5433 303.661 48.1543 301.714C47.7653 299.767 47.9627 297.749 48.7214 295.914C49.4801 294.079 50.7661 292.511 52.4166 291.407C54.067 290.304 56.0078 289.715 57.9931 289.715C60.6502 289.715 63.1988 290.769 65.0797 292.646C66.9607 294.522 68.0204 297.068 68.0264 299.725Z" fill="#FCBD67" stroke="#282548" stroke-width="3.64021" stroke-miterlimit="10"/>
<path d="M77.9915 282.434C76.0071 282.434 74.0673 281.846 72.4173 280.744C70.7673 279.641 69.4814 278.074 68.722 276.241C67.9626 274.407 67.7639 272.39 68.151 270.444C68.5382 268.497 69.4937 266.71 70.8969 265.306C72.3001 263.903 74.0879 262.948 76.0341 262.561C77.9804 262.173 79.9978 262.372 81.8311 263.132C83.6645 263.891 85.2315 265.177 86.334 266.827C87.4365 268.477 88.0248 270.417 88.0248 272.401C88.0278 273.72 87.7703 275.026 87.2672 276.244C86.764 277.463 86.0251 278.57 85.0929 279.502C84.1606 280.435 83.0534 281.174 81.8347 281.677C80.6161 282.18 79.31 282.437 77.9915 282.434Z" fill="#FCBD67" stroke="#282548" stroke-width="3.64021" stroke-miterlimit="10"/>
<path d="M37.9492 282.434C35.9648 282.434 34.0249 281.846 32.375 280.744C30.725 279.641 29.439 278.074 28.6796 276.241C27.9202 274.407 27.7214 272.39 28.1086 270.444C28.4957 268.497 29.4514 266.71 30.8546 265.306C32.2577 263.903 34.0455 262.948 35.9918 262.561C37.9381 262.173 39.9554 262.372 41.7888 263.132C43.6221 263.891 45.1891 265.177 46.2915 266.827C47.394 268.477 47.9825 270.417 47.9825 272.401C47.9855 273.72 47.728 275.026 47.2248 276.244C46.7217 277.463 45.9828 278.57 45.0505 279.502C44.1182 280.435 43.0109 281.174 41.7922 281.677C40.5736 282.18 39.2676 282.437 37.9492 282.434Z" fill="#FCBD67" stroke="#282548" stroke-width="3.64021" stroke-miterlimit="10"/>
<path d="M122.948 235.908C122.948 237.352 122.52 238.764 121.717 239.965C120.915 241.166 119.774 242.103 118.44 242.655C117.105 243.208 115.637 243.353 114.22 243.071C112.803 242.789 111.502 242.094 110.481 241.072C109.459 240.051 108.764 238.749 108.482 237.333C108.2 235.916 108.345 234.448 108.897 233.113C109.45 231.779 110.386 230.638 111.587 229.836C112.788 229.033 114.2 228.605 115.645 228.605C116.604 228.605 117.554 228.794 118.44 229.161C119.326 229.528 120.131 230.066 120.809 230.744C121.487 231.422 122.025 232.227 122.392 233.113C122.759 233.999 122.948 234.949 122.948 235.908Z" fill="#FCBD67" stroke="#282548" stroke-width="3.64021" stroke-miterlimit="10"/>
<path d="M149.112 235.908C149.112 237.353 148.683 238.766 147.88 239.968C147.076 241.169 145.934 242.105 144.598 242.657C143.263 243.21 141.793 243.353 140.376 243.069C138.958 242.786 137.657 242.088 136.637 241.064C135.616 240.04 134.922 238.737 134.643 237.319C134.364 235.901 134.512 234.432 135.068 233.097C135.624 231.763 136.564 230.624 137.768 229.825C138.972 229.025 140.386 228.6 141.832 228.605C143.765 228.611 145.616 229.383 146.981 230.752C148.346 232.121 149.112 233.975 149.112 235.908Z" fill="#FCBD67" stroke="#282548" stroke-width="3.64021" stroke-miterlimit="10"/>
<path d="M175.299 235.908C175.299 237.352 174.87 238.764 174.068 239.965C173.265 241.166 172.125 242.103 170.79 242.655C169.456 243.208 167.987 243.353 166.571 243.071C165.154 242.789 163.853 242.094 162.831 241.072C161.81 240.051 161.114 238.749 160.833 237.333C160.551 235.916 160.695 234.448 161.248 233.113C161.801 231.779 162.737 230.638 163.938 229.836C165.139 229.033 166.551 228.605 167.995 228.605C169.932 228.605 171.79 229.374 173.16 230.744C174.529 232.113 175.299 233.971 175.299 235.908Z" fill="#FCBD67" stroke="#282548" stroke-width="3.64021" stroke-miterlimit="10"/>
<path d="M140.899 46.6628H66.5474V154.64H140.899V46.6628Z" fill="#FFDCAD" stroke="#282548" stroke-width="3.64021" stroke-miterlimit="10"/>
<path d="M140.899 46.6629L153.912 37.2666H53.511L66.5474 46.6629H140.899Z" fill="#96D2BF" stroke="#282548" stroke-width="3.64021" stroke-linecap="round" stroke-linejoin="round"/>
<path d="M140.899 154.618L153.912 164.014H53.511L66.5474 154.618H140.899Z" fill="#96D2BF" stroke="#282548" stroke-width="3.64021" stroke-linecap="round" stroke-linejoin="round"/>
<path d="M186.606 188.039C100.697 215.227 21.0449 188.039 21.0449 188.039C22.0019 190.776 22.2601 193.709 21.7958 196.571C21.7958 196.571 99.6507 224.123 185.605 196.912C185.33 194.947 185.431 192.948 185.901 191.02C186.151 189.586 186.606 188.039 186.606 188.039Z" fill="#63C3B1" stroke="#282548" stroke-width="3.64021" stroke-miterlimit="10"/>
<path d="M53.511 37.2666L66.5474 46.6629V154.618L53.511 164.014V37.2666Z" fill="#96D2BF" stroke="#282548" stroke-width="3.64021" stroke-linecap="round" stroke-linejoin="round"/>
<path d="M153.912 37.2666L140.899 46.6629V154.618L153.912 164.014V37.2666Z" fill="#96D2BF" stroke="#282548" stroke-width="3.64021" stroke-linecap="round" stroke-linejoin="round"/>
<path d="M157.553 29.9862H49.871C47.8606 29.9862 46.2307 31.616 46.2307 33.6264V167.631C46.2307 169.642 47.8606 171.272 49.871 171.272H157.553C159.563 171.272 161.193 169.642 161.193 167.631V33.6264C161.193 31.616 159.563 29.9862 157.553 29.9862Z" stroke="#282548" stroke-width="3.64021" stroke-linecap="round" stroke-linejoin="round"/>
<path d="M26.4371 44.1603H16.1763V54.4211H26.4371V44.1603Z" fill="#96D2BF" stroke="#282548" stroke-width="3.64021" stroke-linecap="round" stroke-linejoin="round"/>
<path d="M26.4371 54.4438H16.1763V64.7047H26.4371V54.4438Z" fill="#96D2BF" stroke="#282548" stroke-width="3.64021" stroke-linecap="round" stroke-linejoin="round"/>
<path d="M36.698 54.4438H26.4373V64.7047H36.698V54.4438Z" fill="#96D2BF" stroke="#282548" stroke-width="3.64021" stroke-linecap="round" stroke-linejoin="round"/>
<path d="M36.698 64.7047H26.4373V74.9655H36.698V64.7047Z" fill="#96D2BF" stroke="#282548" stroke-width="3.64021" stroke-linecap="round" stroke-linejoin="round"/>
<path d="M26.4371 96.7157H16.1763V106.977H26.4371V96.7157Z" fill="#96D2BF" stroke="#282548" stroke-width="3.64021" stroke-linecap="round" stroke-linejoin="round"/>
<path d="M26.4371 86.4549H16.1763V96.7157H26.4371V86.4549Z" fill="#96D2BF" stroke="#282548" stroke-width="3.64021" stroke-linecap="round" stroke-linejoin="round"/>
<path d="M26.4371 106.999H16.1763V117.26H26.4371V106.999Z" fill="#96D2BF" stroke="#282548" stroke-width="3.64021" stroke-linecap="round" stroke-linejoin="round"/>
<path d="M36.698 96.7157H26.4373V106.977H36.698V96.7157Z" fill="#96D2BF" stroke="#282548" stroke-width="3.64021" stroke-linecap="round" stroke-linejoin="round"/>
<path d="M26.4371 131.798H16.1763V142.059H26.4371V131.798Z" fill="#96D2BF" stroke="#282548" stroke-width="3.64021" stroke-linecap="round" stroke-linejoin="round"/>
<path d="M26.4371 142.059H16.1763V152.32H26.4371V142.059Z" fill="#96D2BF" stroke="#282548" stroke-width="3.64021" stroke-linecap="round" stroke-linejoin="round"/>
<path d="M36.698 131.798H26.4373V142.059H36.698V131.798Z" fill="#96D2BF" stroke="#282548" stroke-width="3.64021" stroke-linecap="round" stroke-linejoin="round"/>
<path d="M36.698 142.059H26.4373V152.32H36.698V142.059Z" fill="#96D2BF" stroke="#282548" stroke-width="3.64021" stroke-linecap="round" stroke-linejoin="round"/>
<path d="M179.781 142.059H169.52V152.32H179.781V142.059Z" fill="#96D2BF" stroke="#282548" stroke-width="3.64021" stroke-linecap="round" stroke-linejoin="round"/>
<path d="M179.781 131.798H169.52V142.059H179.781V131.798Z" fill="#96D2BF" stroke="#282548" stroke-width="3.64021" stroke-linecap="round" stroke-linejoin="round"/>
<path d="M190.041 131.798H179.781V142.059H190.041V131.798Z" fill="#96D2BF" stroke="#282548" stroke-width="3.64021" stroke-linecap="round" stroke-linejoin="round"/>
<path d="M190.041 121.515H179.781V131.775H190.041V121.515Z" fill="#96D2BF" stroke="#282548" stroke-width="3.64021" stroke-linecap="round" stroke-linejoin="round"/>
<path d="M179.781 89.5036H169.52V99.7644H179.781V89.5036Z" fill="#96D2BF" stroke="#282548" stroke-width="3.64021" stroke-linecap="round" stroke-linejoin="round"/>
<path d="M179.781 99.7644H169.52V110.025H179.781V99.7644Z" fill="#96D2BF" stroke="#282548" stroke-width="3.64021" stroke-linecap="round" stroke-linejoin="round"/>
<path d="M179.781 79.2427H169.52V89.5035H179.781V79.2427Z" fill="#96D2BF" stroke="#282548" stroke-width="3.64021" stroke-linecap="round" stroke-linejoin="round"/>
<path d="M190.041 89.5036H179.781V99.7644H190.041V89.5036Z" fill="#96D2BF" stroke="#282548" stroke-width="3.64021" stroke-linecap="round" stroke-linejoin="round"/>
<path d="M179.781 54.4438H169.52V64.7047H179.781V54.4438Z" fill="#96D2BF" stroke="#282548" stroke-width="3.64021" stroke-linecap="round" stroke-linejoin="round"/>
<path d="M179.781 44.1603H169.52V54.4211H179.781V44.1603Z" fill="#96D2BF" stroke="#282548" stroke-width="3.64021" stroke-linecap="round" stroke-linejoin="round"/>
<path d="M190.041 54.4438H179.781V64.7047H190.041V54.4438Z" fill="#96D2BF" stroke="#282548" stroke-width="3.64021" stroke-linecap="round" stroke-linejoin="round"/>
<path d="M190.041 44.1603H179.781V54.4211H190.041V44.1603Z" fill="#96D2BF" stroke="#282548" stroke-width="3.64021" stroke-linecap="round" stroke-linejoin="round"/>
<path d="M24.3438 14.3788H183.08" stroke="white" stroke-width="3.64021" stroke-linecap="round" stroke-linejoin="round"/>
</svg>
